<svg xmlns="http://www.w3.org/2000/svg" width="74" height="80" fill="none"><path fill="#029F59" stroke="#fff" d="M37 69.5a2.833 2.833 0 1 0 0-5.667 2.833 2.833 0 0 0 0 5.667Z"/><g filter="url(#a)"><path fill="#029F59" fill-rule="evenodd" d="M39.562 55.764c.607-.682 1.432-1.123 2.32-1.334C51.126 52.229 58 43.917 58 34c0-11.598-9.402-21-21-21s-21 9.402-21 21c0 9.917 6.875 18.229 16.118 20.43.888.211 1.713.652 2.32 1.334l.85.956a4 4 0 0 1 .805 1.392L37 60.833l.907-2.72a4 4 0 0 1 .805-1.393l.85-.956Z" clip-rule="evenodd"/></g><circle cx="37" cy="35" r="5" fill="#FFF9F9"/><defs><filter id="a" width="74" height="79.833" x="0" y="0" color-interpolation-filters="sRGB" filterUnits="userSpaceOnUse"><feFlood flood-opacity="0" result="BackgroundImageFix"/><feColorMatrix in="SourceAlpha" result="hardAlpha" values="0 0 0 0 0 0 0 0 0 0 0 0 0 0 0 0 0 0 127 0"/><feOffset dy="3"/><feGaussianBlur stdDeviation="8"/><feColorMatrix values="0 0 0 0 1 0 0 0 0 0.2 0 0 0 0 0.2 0 0 0 0.25 0"/><feBlend in2="BackgroundImageFix" result="effect1_dropShadow_4_1351"/><feBlend in="SourceGraphic" in2="effect1_dropShadow_4_1351" result="shape"/></filter></defs></svg>